<svg xmlns="http://www.w3.org/2000/svg" version="1.1" xmlns:xlink="http://www.w3.org/1999/xlink" xmlns:svgjs="http://svgjs.dev/svgjs" width="1500" height="274" viewBox="0 0 1500 274"><g transform="matrix(1,0,0,1,-0.8284111565079684,-0.8038492838541345)"><svg viewBox="0 0 394 72" data-background-color="#ffffff" preserveAspectRatio="xMidYMid meet" height="274" width="1500" xmlns="http://www.w3.org/2000/svg" xmlns:xlink="http://www.w3.org/1999/xlink"><g id="tight-bounds" transform="matrix(1,0,0,1,0.21759599710941302,0.21123046874998863)"><svg viewBox="0 0 390.81097929864484 71.5775390625" height="71.5775390625" width="390.81097929864484"><g><svg viewBox="0 0 390.81097929864484 71.5775390625" height="71.5775390625" width="390.81097929864484"><g><svg viewBox="0 0 390.81097929864484 71.5775390625" height="71.5775390625" width="390.81097929864484"><g id="textblocktransform"><svg viewBox="0 0 390.81097929864484 71.5775390625" height="71.5775390625" width="390.81097929864484" id="textblock"><g><svg viewBox="0 0 390.81097929864484 71.5775390625" height="71.5775390625" width="390.81097929864484"><g><svg><g></g><g></g></svg></g><g><svg><g><svg></svg></g><g></g></svg></g><g id="text-0"><svg viewBox="0 0 390.81097929864484 71.5775390625" height="71.5775390625" width="390.81097929864484"><g transform="matrix(1,0,0,1,0,0)"><svg width="300.530859375" viewBox="3.42 -34.33 185.73000000000002 44.239999999999995" height="71.5775390625" data-palette-color="url(#ee5e7cb6-f7cb-4d0b-b9d3-dbcb910c233e)"></svg></g><g><svg version="1.1" xmlns="http://www.w3.org/2000/svg" xmlns:xlink="http://www.w3.org/1999/xlink" x="317.42988281249995" y="0" viewBox="3.6170335753706655 2.9935615038442718 96.38196642462933 94.01309461193502" enable-background="new 3.617 2.994 100 94.013" xml:space="preserve" id="dxe-0" width="73.38109648614486" height="71.5775390625" class="icon-dxe-0" data-fill-palette-color="accent"><g fill="#ed2647" data-fill-palette-color="accent"><path d="M45.739 21.352C51.299 24.336 50.011 42.516 46.853 52.815L61.541 68.442 84.131 93.336S79.225 100.163 74.599 95.196C69.968 90.231 54.75 74.549 54.75 74.549L34.326 56.464S32.154 55.316 32.157 52.816C32.162 50.32 33.024 33.116 32.383 27.908 32.383 27.908 33.821 26.908 35.927 28.158 35.927 28.158 37.254 25.505 22.732 17.799L6.915 9.519S4.298 7.866 5.639 5.002C6.892 2.33 9.798 2.875 10.754 3.533 11.708 4.192 23.833 10.289 23.833 10.289" fill="#ed2647" data-fill-palette-color="accent"></path><circle cx="94.372" cy="85.257" r="9.2" fill="#ed2647" data-fill-palette-color="accent"></circle><path d="M41.057 68.052S39.009 72.432 36.259 72.935C33.509 73.437 3.662 72.267 3.662 72.267S2.84 64.341 8.225 64.341 29.762 63.956 29.762 63.956L33.04 60.504z" fill="#ed2647" data-fill-palette-color="accent"></path><path d="M29.411 42.476V50.815L26.203 53.363S22.661 55.733 20.573 52.031C19.353 49.236 22.344 47.193 23.071 46.602 23.8 46.012 29.411 42.476 29.411 42.476" fill="#ed2647" data-fill-palette-color="accent"></path><path d="M54.27 23.947S51.574 25.426 50.619 22.859C50.004 20.855 49.103 19.345 47.829 18.659L46.207 17.839 45.949 17.71 45.157 17.312 48.716 8.068S51.503 2.612 58.149 7.282C61.161 10.034 60.992 12.394 60.364 15.553 59.501 19.905 54.27 23.947 54.27 23.947" fill="#ed2647" data-fill-palette-color="accent"></path></g></svg></g></svg></g></svg></g></svg></g></svg></g><g></g></svg></g><defs></defs><mask id="86dba36a-1320-4609-8b75-a24cb8456de7"><g id="SvgjsG5007"><svg viewBox="0 0 390.81097929864484 71.5775390625" height="71.5775390625" width="390.81097929864484"><g><svg viewBox="0 0 390.81097929864484 71.5775390625" height="71.5775390625" width="390.81097929864484"><g><svg viewBox="0 0 390.81097929864484 71.5775390625" height="71.5775390625" width="390.81097929864484"><g id="SvgjsG5006"><svg viewBox="0 0 390.81097929864484 71.5775390625" height="71.5775390625" width="390.81097929864484" id="SvgjsSvg5005"><g><svg viewBox="0 0 390.81097929864484 71.5775390625" height="71.5775390625" width="390.81097929864484"><g><svg><g></g><g></g></svg></g><g><svg><g><svg></svg></g><g></g></svg></g><g id="SvgjsG5004"><svg viewBox="0 0 390.81097929864484 71.5775390625" height="71.5775390625" width="390.81097929864484"><g transform="matrix(1,0,0,1,0,0)"><svg width="300.530859375" viewBox="3.42 -34.33 185.73000000000002 44.239999999999995" height="71.5775390625" data-palette-color="url(#ee5e7cb6-f7cb-4d0b-b9d3-dbcb910c233e)"><path d="M10.74-25.49L10.74-25.49Q10.57-22.92 10.57-21.68L10.57-21.68 10.52-20.9 10.45-18.58 10.4-17.8 10.3-15.09Q10.25-14.31 10.25-13.92L10.25-13.92 10.21-13.13Q10.16-12.35 10.16-11.99L10.16-11.99 10.11-11.23Q10.08-10.84 10.08-10.45L10.08-10.45 10.03-9.69 9.96-7.03 9.96-5.57Q9.96-4.39 10.84-3.99 11.72-3.59 13.4-3.59L13.4-3.59 14.5-3.59Q19.73-3.59 22.75-7.47L22.75-7.47Q24.07-9.16 24.9-11.91 25.73-14.67 25.73-18.12L25.73-18.12 25.73-18.53Q25.73-27.54 19.82-30.2L19.82-30.2Q18.07-30.98 15.87-30.98L15.87-30.98 14.75-30.98Q12.01-30.98 11.38-30.11 10.74-29.25 10.74-25.49ZM4.69-32.35L4.69-32.35Q4.69-33.52 6.25-33.81L6.25-33.81Q9.03-34.33 14.36-34.33L14.36-34.33 15.53-34.33Q26.9-34.33 30.32-25.63L30.32-25.63Q31.52-22.61 31.52-18.82L31.52-18.82 31.52-18.68 31.52-18.07Q31.52-14.14 30.13-10.31 28.74-6.49 26.06-4.2 23.39-1.9 20.29-0.96 17.19-0.02 12.21-0.02L12.21-0.02 11.65-0.02 11.06-0.05Q5.74-0.05 4.22-0.54L4.22-0.54Q3.42-0.81 3.42-1.71L3.42-1.71Q3.42-1.98 4.05-3.37L4.05-3.37Q5.2-5.88 5.2-12.43L5.2-12.43 5.49-19.82 5.54-20.95 5.62-24.83Q5.62-28.3 5.52-29.08 5.42-29.86 5.05-30.93 4.69-32.01 4.69-32.35ZM45.14-0.1L45.14-0.1Q45.14-1.37 43.41-4.55 41.67-7.74 40.5-10.5L40.5-10.5Q36.5-19.9 36.5-21.36L36.5-21.36Q36.5-22.02 37.27-22.56 38.03-23.1 39.84-23.1 41.65-23.1 42.38-21.56L42.38-21.56Q42.45-21.39 42.89-19.43L42.89-19.43Q46.21-7.3 47.04-6.71L47.04-6.71Q48.31-6.71 50.51-12.65L50.51-12.65Q52-16.67 52.35-19.41 52.71-22.14 52.93-22.56L52.93-22.56Q53.61-23.83 55.77-23.83 57.93-23.83 57.93-22.14L57.93-22.14Q57.93-20.95 57.05-18.95 56.17-16.94 55.39-14.6L55.39-14.6Q50.93-1.22 48.92 2.31 46.92 5.83 44.7 7.87 42.48 9.91 40.24 9.91 38.01 9.91 38.01 8.64L38.01 8.64Q38.01 7.52 40.29 6.59 42.58 5.66 43.48 4.44L43.48 4.44Q45.14 2.22 45.14-0.1ZM84.88-2.93L84.88-2.93Q84.88-1.12 81.73-1.12L81.73-1.12Q79.95-1.12 79.34-1.98L79.34-1.98Q79.05-2.39 79.05-3.93L79.05-3.93 78.97-5.49Q78.8-8.06 78.8-10.64L78.8-10.64Q78.8-16.24 77.84-18.15 76.87-20.07 74.6-20.07L74.6-20.07Q73.09-20.07 71.81-19.17 70.53-18.26 69.84-16.65L69.84-16.65Q68.43-13.35 68.43-4.47L68.43-4.47Q68.43-2.44 67.66-1.61 66.89-0.78 65.69-0.78L65.69-0.78 65.2-0.78Q62.47-0.78 62.47-2.95L62.47-2.95 62.47-3.54Q62.47-3.81 62.76-4.71L62.76-4.71 63.15-5.83Q63.74-7.81 63.74-14.31L63.74-14.31 63.86-21.56Q63.86-22.95 65.38-22.95 66.89-22.95 68.37-21.95 69.84-20.95 70.25-20.95 70.65-20.95 71.67-21.51L71.67-21.51Q75.12-23.39 77.19-23.39L77.19-23.39 77.83-23.39Q81.56-23.39 83.08-20.02L83.08-20.02Q83.81-18.43 83.81-13.18L83.81-13.18 83.81-13.01Q83.81-12.57 83.78-12.13L83.78-12.13Q83.78-10.94 83.78-10.89L83.78-10.89Q83.78-10.42 83.78-9.99L83.78-9.99Q83.78-9.64 83.78-9.33L83.78-9.33Q83.78-7.45 83.91-6.76L83.91-6.76Q84.08-5.83 84.47-4.83L84.47-4.83Q84.88-3.74 84.88-2.93ZM98.33-3.08L98.33-3.08 98.97-3.08Q100.97-3.08 102.49-4.43 104.02-5.79 104.02-7.57L104.02-7.57 104.07-7.89 104.07-8.2 104.12-8.96 104.12-10.35Q104.12-11.77 102.68-11.77L102.68-11.77 101.58-11.77 101.41-11.74 100.46-11.67Q99.77-11.57 99.48-11.57L99.48-11.57Q97.5-11.57 95.82-10.08L95.82-10.08Q94.65-9.03 94.65-7.1L94.65-7.1 94.65-6.62Q94.65-4.98 95.71-4.03 96.77-3.08 98.33-3.08ZM92.89-18.68L92.89-18.68Q91.25-18.68 91.25-20.78L91.25-20.78Q91.25-22.34 93.9-23.5 96.55-24.66 99.41-24.66L99.41-24.66 100.63-24.66Q103.09-24.66 104.97-23.74 106.85-22.83 107.84-21.26 108.83-19.7 109.05-17.19L109.05-17.19Q109.1-16.6 109.1-11.5 109.1-6.4 109.23-5.63 109.37-4.86 110.01-3.76 110.66-2.66 110.66-1.95 110.66-1.25 109.99-0.74 109.32-0.24 108.05-0.24 106.78-0.24 105.29-0.87 103.8-1.49 103.12-1.49L103.12-1.49Q103.04-1.49 100.68-0.62 98.31 0.24 96.67 0.24L96.67 0.24 96.14 0.24Q93.4 0.24 91.48-1.49 89.57-3.22 89.57-6.42 89.57-9.62 91.67-11.41 93.77-13.21 96.77-13.87L96.77-13.87Q97.67-14.06 99.77-14.38 101.87-14.7 102.63-15.04L102.63-15.04Q103.95-15.65 103.95-17.35 103.95-19.04 102.82-20.01 101.7-20.97 100.15-20.97 98.6-20.97 96.09-19.82 93.57-18.68 92.89-18.68ZM126.5-22.6Q128.38-23.29 130.36-23.29 132.34-23.29 134.47-22.12 136.61-20.95 136.81-20.95 137-20.95 139.44-22.14 141.88-23.34 143.85-23.34 145.82-23.34 147.1-22.52 148.38-21.7 149.04-20.58L149.04-20.58Q150.28-18.43 150.28-11.04L150.28-11.04Q150.28-7.71 150.34-7.24 150.41-6.76 150.69-5.55 150.97-4.35 150.97-3.58 150.97-2.81 150.33-1.98 149.7-1.15 148.65-1.15L148.65-1.15Q146.57-1.15 146.18-2.83L146.18-2.83Q145.89-4.05 145.5-9.96L145.5-9.96Q145.13-15.87 144.69-16.89L144.69-16.89Q143.81-19.04 140.96-19.04L140.96-19.04Q139.13-19.04 138.1-16.75L138.1-16.75Q136.61-13.45 136.61-7.37L136.61-7.37 136.86-3.86Q136.86-2 135.49-1.05L135.49-1.05Q134.61-0.44 133.16-0.44 131.7-0.44 131.24-0.73L131.24-0.73Q130.43-1.22 130.43-2.81L130.43-2.81Q130.43-3.1 130.91-5.21 131.39-7.32 131.39-12.1 131.39-16.87 130.68-18.18 129.97-19.48 128.21-19.48 126.45-19.48 125.1-18.29 123.74-17.09 123.12-15.67 122.5-14.26 122.02-8.94 121.55-3.61 121.35-2.83L121.35-2.83Q121.01-1.49 119.39-1.49 117.76-1.49 117.17-2.45 116.57-3.42 116.57-4.81L116.57-4.81 116.69-5.66 117.15-7.35Q117.45-8.52 117.49-10.08L117.49-10.08Q117.86-19.78 118.06-21.14 118.25-22.51 119.81-22.51L119.81-22.51 123.45-21.9Q124.62-21.9 126.5-22.6ZM164.95-31.74L164.95-31.74 164.95-31.45Q164.95-30.2 164.23-29.33 163.51-28.47 162.02-28.47L162.02-28.47 161.63-28.47 160.88-28.56Q160.22-28.56 159.61-29.17 159-29.79 159-31.01L159-31.01 159-31.3 159.12-32.18Q159.12-32.69 159.74-33.45 160.36-34.2 161.34-34.2L161.34-34.2 161.9-34.28 162.39-34.28 163.07-34.18Q163.71-34.18 164.33-33.56 164.95-32.93 164.95-31.74ZM163.81-21.44L163.81-21.44 163.54-14.87 163.49-14.21 163.42-12.21 163.42-11.25Q163.42-7.74 163.62-6.64 163.83-5.54 164.42-4.5 165-3.47 165-3L165-3 165-2.78Q165-1.59 163.78-0.88 162.56-0.17 160.46-0.17L160.46-0.17 159.85-0.17Q158.63-0.17 158-0.72 157.36-1.27 157.36-1.9L157.36-1.9 157.36-2.44Q157.36-2.76 157.92-4.7 158.48-6.64 158.48-9.99L158.48-9.99Q158.56-10.94 158.56-11.3L158.56-11.3 158.63-12.65 158.68-13.31Q158.8-15.01 158.8-15.97L158.8-15.97 158.83-16.94Q158.83-18.77 158.23-20.19 157.63-21.61 157.63-21.95L157.63-21.95Q157.63-23.71 160.95-23.71L160.95-23.71 161.83-23.71Q163.07-23.71 163.44-23.06 163.81-22.41 163.81-21.44ZM170.22-10.16L170.22-10.16 170.22-11.28Q170.22-14.36 171.18-16.72L171.18-16.72Q173.01-21.31 176.79-23.07L176.79-23.07Q179.26-24.24 181.89-24.24L181.89-24.24 182.43-24.24Q185.34-24.24 187.24-23.1 189.15-21.95 189.15-20.29L189.15-20.29Q189.15-18.36 187.29-18.36L187.29-18.36Q186.95-18.36 184.9-19.43L184.9-19.43Q182.85-20.48 181.53-20.48L181.53-20.48Q181.5-20.48 181.48-20.48L181.48-20.48Q178.6-20.48 176.97-17.99 175.35-15.5 175.35-11.5 175.35-7.5 177.07-5.57 178.79-3.64 181.87-3.64L181.87-3.64Q183.14-3.64 185.36-4.36 187.58-5.08 188.07-5.08L188.07-5.08Q189.07-5.08 189.07-4.03L189.07-4.03Q189.07-2.61 186.26-1.17 183.46 0.27 180.75 0.27L180.75 0.27Q173.5 0.27 171.15-5.44L171.15-5.44Q170.22-7.71 170.22-10.16Z" opacity="1" transform="matrix(1,0,0,1,0,0)" fill="white" class="wordmark-text-0"></path></svg></g><g><svg version="1.1" xmlns="http://www.w3.org/2000/svg" xmlns:xlink="http://www.w3.org/1999/xlink" x="317.42988281249995" y="0" viewBox="3.6170335753706655 2.9935615038442718 96.38196642462933 94.01309461193502" enable-background="new 3.617 2.994 100 94.013" xml:space="preserve" id="SvgjsSvg5003" width="73.38109648614486" height="71.5775390625" class="icon-dxe-0" data-fill-palette-color="accent"><g fill="black"><path d="M45.739 21.352C51.299 24.336 50.011 42.516 46.853 52.815L61.541 68.442 84.131 93.336S79.225 100.163 74.599 95.196C69.968 90.231 54.75 74.549 54.75 74.549L34.326 56.464S32.154 55.316 32.157 52.816C32.162 50.32 33.024 33.116 32.383 27.908 32.383 27.908 33.821 26.908 35.927 28.158 35.927 28.158 37.254 25.505 22.732 17.799L6.915 9.519S4.298 7.866 5.639 5.002C6.892 2.33 9.798 2.875 10.754 3.533 11.708 4.192 23.833 10.289 23.833 10.289" fill="black"></path><circle cx="94.372" cy="85.257" r="9.2" fill="black"></circle><path d="M41.057 68.052S39.009 72.432 36.259 72.935C33.509 73.437 3.662 72.267 3.662 72.267S2.84 64.341 8.225 64.341 29.762 63.956 29.762 63.956L33.04 60.504z" fill="black"></path><path d="M29.411 42.476V50.815L26.203 53.363S22.661 55.733 20.573 52.031C19.353 49.236 22.344 47.193 23.071 46.602 23.8 46.012 29.411 42.476 29.411 42.476" fill="black"></path><path d="M54.27 23.947S51.574 25.426 50.619 22.859C50.004 20.855 49.103 19.345 47.829 18.659L46.207 17.839 45.949 17.71 45.157 17.312 48.716 8.068S51.503 2.612 58.149 7.282C61.161 10.034 60.992 12.394 60.364 15.553 59.501 19.905 54.27 23.947 54.27 23.947" fill="black"></path></g></svg></g></svg></g></svg></g></svg></g></svg></g><g></g></svg></g><defs><mask></mask></defs></svg><rect width="390.81097929864484" height="71.5775390625" fill="black" stroke="none" visibility="hidden"></rect></g></mask><linearGradient x1="0" x2="1" y1="0.5" y2="0.5" id="ee5e7cb6-f7cb-4d0b-b9d3-dbcb910c233e"><stop stop-color="#ffa62e" offset="0"></stop><stop stop-color="#f71b3d" offset="1"></stop></linearGradient><rect width="393.56480800578106" height="71.5775390625" fill="url(#ee5e7cb6-f7cb-4d0b-b9d3-dbcb910c233e)" mask="url(#86dba36a-1320-4609-8b75-a24cb8456de7)" data-fill-palette-color="primary"></rect></svg><rect width="390.81097929864484" height="71.5775390625" fill="none" stroke="none" visibility="hidden"></rect></g></svg></g></svg>